#!OML:ASF I:\Random Stuff\random\construction\7_22_03\Session 2\subj1.ASF
:FULLY-SPECIFIED
:DEGREES
1015
root 3.77558 17.5483 -12.5845 3.90899 10.4078 0.0280686
lowerback 4.01427 0.368317 5.74949
upperback -0.618835 0.850455 2.33345
thorax -2.84725 0.350733 -0.869259
lowerneck -20.2216 4.02543 4.95015
upperneck 30.0437 4.67589 -1.55578
head 13.738 2.41632 -0.630493
rclavicle 8.94531e-016 1.27222e-014
rhumerus -42.4627 4.18647 -72.1585
rradius 90.5332
rwrist 30.0786
rhand -14.4543 -347.485
rfingers 7.12502
rthumb 11.691 -17.1386
lclavicle 8.94531e-016 1.27222e-014
lhumerus -32.9003 -6.76303 90.6884
lradius 29.9336
lwrist 33.678
lhand -25.4932 59.3653
lfingers 7.12502
lthumb 1.03519 -270.657
rfemur 2.99487 -24.7769 24.1727
rtibia 5.48529
rfoot -12.0886 0.354917
rtoes 25.3738
lfemur -15.845 -7.62151 -12.1382
ltibia 29.0122
lfoot -16.3169 0.332465
ltoes -16.6646
1016
root 3.80557 17.5487 -12.6091 3.94449 10.704 -0.000442178
lowerback 3.71294 0.385007 5.43125
upperback -0.765178 0.838157 2.23032
thorax -2.8318 0.347118 -0.79531
lowerneck -20.382 3.97508 4.83046
upperneck 30.2122 4.59702 -1.41768
head 13.8337 2.38747 -0.56572
rclavicle -2.16675e-014 1.82882e-014
rhumerus -42.6568 4.3278 -72.411
rradius 90.1915
rwrist 29.941
rhand -14.9959 -346.991
rfingers 7.12502
rthumb 11.1687 -16.6739
lclavicle -2.16675e-014 1.82882e-014
lhumerus -33.3378 -5.85822 90.1286
lradius 29.5282
lwrist 33.573
lhand -25.5845 59.3373
lfingers 7.12502
lthumb 0.947042 -270.685
rfemur 2.71935 -25.0506 24.1684
rtibia 5.72058
rfoot -12.1122 0.291016
rtoes 23.8547
lfemur -14.9391 -9.08814 -11.637
ltibia 27.9427
lfoot -16.1882 0.664497
ltoes -16.0491
1017
root 3.84234 17.5481 -12.6327 3.97935 10.9187 -0.0713879
lowerback 3.47997 0.39918 5.1319
upperback -0.931347 0.831558 2.14434
thorax -2.87495 0.344915 -0.715079
lowerneck -20.403 3.93057 4.77752
upperneck 30.162 4.52 -1.32803
head 13.8093 2.36067 -0.534822
rclavicle 3.28989e-014 -7.15625e-015
rhumerus -42.8492 4.66594 -72.694
rradius 89.8372
rwrist 29.4813
rhand -15.9329 -346.466
rfingers 7.12502
rthumb 10.2649 -16.1952
lclavicle 3.28989e-014 -7.15625e-015
lhumerus -33.8341 -5.12524 89.6058
lradius 29.1908
lwrist 33.432
lhand -25.6965 59.3531
lfingers 7.12502
lthumb 0.83884 -270.669
rfemur 2.44562 -25.2381 24.1715
rtibia 5.95632
rfoot -12.1207 0.271922
rtoes 22.9885
lfemur -14.0802 -10.4207 -11.1684
ltibia 26.8014
lfoot -15.5802 1.05458
ltoes -15.4161
1018
root 3.88388 17.5488 -12.6564 4.12268 11.0748 -0.180645
lowerback 3.19234 0.435112 4.86185
upperback -1.14859 0.855203 2.06596
thorax -2.93832 0.356688 -0.644512
lowerneck -20.4335 3.89286 4.74615
upperneck 30.1496 4.45112 -1.25422
head 13.8049 2.33777 -0.51202
rclavicle -8.94531e-015 -1.19271e-014
rhumerus -43.0965 5.12448 -72.9998
rradius 89.5337
rwrist 28.7091
rhand -17.2748 -345.469
rfingers 7.12502
rthumb 8.97019 -15.258
lclavicle -8.94531e-015 -1.19271e-014
lhumerus -34.3209 -4.47486 89.0862
lradius 28.8436
lwrist 33.1696
lhand -25.5965 59.3734
lfingers 7.12502
lthumb 0.935447 -270.649
rfemur 2.09198 -25.3567 24.2335
rtibia 6.10588
rfoot -12.1228 0.308546
rtoes 22.8337
lfemur -13.4245 -11.6466 -10.684
ltibia 25.6736
lfoot -14.7477 1.64571
ltoes -15.9763
1019
root 3.92712 17.5495 -12.6822 4.34317 11.2055 -0.407286
lowerback 2.84201 0.493273 4.71024
upperback -1.36494 0.910925 2.00413
thorax -2.96283 0.383581 -0.62376
lowerneck -20.4935 3.86957 4.7292
upperneck 30.0524 4.41323 -1.23618
head 13.7734 2.32126 -0.508258
rclavicle -1.2275e-014 8.74653e-015
rhumerus -43.3054 5.60882 -73.3136
rradius 89.3108
rwrist 27.7157
rhand -18.7296 -344.323
rfingers 7.12502
rthumb 7.56616 -14.1677
lclavicle -1.2275e-014 8.74653e-015
lhumerus -34.7283 -3.91793 88.6199
lradius 28.5132
lwrist 32.9551
lhand -25.4996 59.304
lfingers 7.12502
lthumb 1.02904 -270.719
rfemur 1.61498 -25.4333 24.4553
rtibia 6.2208
rfoot -12.1231 0.31122
rtoes 22.3343
lfemur -12.9979 -12.5812 -10.0976
ltibia 24.614
lfoot -14.141 2.44798
ltoes -19.3192
1020
root 3.97541 17.5434 -12.7094 4.46787 11.3717 -0.815607
lowerback 2.56659 0.521931 4.74824
upperback -1.5302 0.940099 2.00491
thorax -2.97666 0.395197 -0.643178
lowerneck -20.6086 3.84956 4.84878
upperneck 29.8567 4.4141 -1.4839
head 13.7245 2.29837 -0.62579
rclavicle 2.127e-014 1.35174e-014
rhumerus -43.4289 6.12635 -73.5638
rradius 89.085
rwrist 26.5843
rhand -19.6706 -343.319
rfingers 7.12502
rthumb 6.65779 -13.1945
lclavicle 2.127e-014 1.35174e-014
lhumerus -35.058 -3.51446 88.2732
lradius 28.2063
lwrist 32.9111
lhand -25.4908 59.1943
lfingers 7.12502
lthumb 1.03753 -270.829
rfemur 1.13276 -25.5345 24.8703
rtibia 6.45003
rfoot -12.1969 0.271448
rtoes 21.3339
lfemur -12.6685 -13.1205 -9.44017
ltibia 23.6251
lfoot -14.0664 3.1359
ltoes -25.1506
1021
root 4.03339 17.5307 -12.738 4.48867 11.5564 -1.19278
lowerback 2.39593 0.527909 4.79162
upperback -1.643 0.9441 2.01905
thorax -2.99664 0.394799 -0.651478
lowerneck -20.7913 3.79843 4.97225
upperneck 29.6842 4.37422 -1.764
head 13.6993 2.25285 -0.762797
rclavicle 2.82523e-014 3.18055e-014
rhumerus -43.5204 6.6275 -73.7422
rradius 88.8125
rwrist 25.2748
rhand -20.2861 -342.407
rfingers 7.12502
rthumb 6.0636 -12.3004
lclavicle 2.82523e-014 3.18055e-014
lhumerus -35.3546 -3.17374 88.0283
lradius 27.9243
lwrist 32.7733
lhand -25.4273 59.0363
lfingers 7.12502
lthumb 1.09891 -270.987
rfemur 0.743566 -25.6641 25.2115
rtibia 6.77493
rfoot -12.3172 0.278963
rtoes 21.1735
lfemur -12.4144 -13.5921 -8.99292
ltibia 22.7556
lfoot -14.3764 3.52951
ltoes -30.6334
1022
root 4.10183 17.5155 -12.7696 4.42138 11.7234 -1.4829
lowerback 2.36063 0.53872 4.78685
upperback -1.71846 0.959851 2.02685
thorax -3.05434 0.400849 -0.641387
lowerneck -20.9133 3.74843 4.91828
upperneck 29.4355 4.32658 -1.82098
head 13.6168 2.21545 -0.783614
rclavicle -1.05853e-014 -9.54166e-015
rhumerus -43.6175 7.05576 -73.8364
rradius 88.5123
rwrist 23.8645
rhand -20.6409 -341.5
rfingers 7.12502
rthumb 5.72106 -11.4029
lclavicle -1.05853e-014 -9.54166e-015
lhumerus -35.616 -2.83518 87.8964
lradius 27.6828
lwrist 32.6357
lhand -25.4866 58.846
lfingers 7.12502
lthumb 1.0416 -271.177
rfemur 0.476215 -25.7901 25.3605
rtibia 7.10471
rfoot -12.4134 0.255881
rtoes 21.0557
lfemur -12.213 -14.2135 -8.80427
ltibia 22.084
lfoot -14.7556 4.0676
ltoes -33.532
1023
root 4.17681 17.5009 -12.8058 4.26902 11.8899 -1.82015
lowerback 2.44245 0.549831 4.88166
upperback -1.7653 0.986973 2.05193
thorax -3.1471 0.410249 -0.670776
lowerneck -20.9263 3.74023 4.8323
upperneck 29.0718 4.36647 -1.91257
head 13.4667 2.20844 -0.798644
rclavicle -1.04362e-014 1.66979e-014
rhumerus -43.7496 7.36564 -73.8354
rradius 88.1493
rwrist 22.6354
rhand -20.9078 -340.561
rfingers 7.12502
rthumb 5.46336 -10.4708
lclavicle -1.04362e-014 1.66979e-014
lhumerus -35.8063 -2.69484 87.9375
lradius 27.4531
lwrist 32.6739
lhand -25.6876 58.7794
lfingers 7.12502
lthumb 0.84745 -271.243
rfemur 0.359137 -25.9205 25.4737
rtibia 7.30419
rfoot -12.404 0.128628
rtoes 19.8824
lfemur -12.0207 -14.9431 -8.68819
ltibia 21.6372
lfoot -15.0722 5.06153
ltoes -35.0753
1024
root 4.25476 17.4896 -12.8474 4.08351 12.0394 -2.20611
lowerback 2.58252 0.583648 5.09406
upperback -1.76232 1.04974 2.03773
thorax -3.21701 0.435237 -0.808555
lowerneck -21.0065 3.72881 4.99972
upperneck 28.6372 4.39281 -2.28046
head 13.3171 2.18423 -0.966036
rclavicle -3.65267e-015 -1.66979e-014
rhumerus -43.8325 7.36353 -73.7988
rradius 87.6548
rwrist 21.8954
rhand -21.6873 -339.552
rfingers 7.12502
rthumb 4.71068 -9.47923
lclavicle -3.65267e-015 -1.66979e-014
lhumerus -35.8221 -2.74945 87.981
lradius 27.1784
lwrist 32.5122
lhand -25.7335 58.9202
lfingers 7.12502
lthumb 0.803094 -271.102
rfemur 0.454763 -26.0379 25.555
rtibia 7.19643
rfoot -12.2296 -0.00988052
rtoes 18.4786
lfemur -11.8487 -15.8058 -8.60653
ltibia 21.4198
lfoot -15.3087 6.28151
ltoes -36.6465
1025
root 4.33659 17.4862 -12.8885 3.85961 12.1409 -2.55945
lowerback 2.73389 0.621413 5.32099
upperback -1.69329 1.11577 2.001
thorax -3.22349 0.46339 -0.977887
lowerneck -21.1868 3.69179 5.23546
upperneck 28.2177 4.36689 -2.70442
head 13.1969 2.1355 -1.17354
rclavicle 1.05604e-014 8.74653e-015
rhumerus -43.6768 7.02526 -73.6863
rradius 86.8448
rwrist 21.9358
rhand -22.7576 -338.393
rfingers 7.12502
rthumb 3.67719 -8.34064
lclavicle 1.05604e-014 8.74653e-015
lhumerus -35.7066 -2.74456 87.9724
lradius 26.9254
lwrist 32.2355
lhand -25.7098 58.9132
lfingers 7.12502
lthumb 0.826043 -271.109
rfemur 0.840886 -26.1168 25.458
rtibia 6.75516
rfoot -11.9016 -0.0539769
rtoes 17.7952
lfemur -11.7023 -16.6659 -8.62105
ltibia 21.4223
lfoot -15.572 7.2783
ltoes -37.2046
